<svg xmlns="http://www.w3.org/2000/svg" xmlns:xlink="http://www.w3.org/1999/xlink" viewBox="0 0 163.13 403.34"><defs><style>.cls-1,.cls-12,.cls-17{fill:none;}.cls-2{isolation:isolate;}.cls-3{fill:#fff;}.cls-4{opacity:0.35;}.cls-5{fill:#efdbb9;}.cls-6{opacity:0.04;mix-blend-mode:darken;}.cls-7{fill:#f99ea0;}.cls-8{fill:#552516;}.cls-9{fill:#0f0f0f;opacity:0.46;mix-blend-mode:soft-light;}.cls-10{fill:#fa4d37;}.cls-11{fill:#ef9196;}.cls-12{stroke:#000;stroke-width:1.08px;}.cls-12,.cls-17{stroke-linecap:round;stroke-miterlimit:10;}.cls-13{fill:#312d45;}.cls-14{clip-path:url(#clip-path);}.cls-15{fill:#fdddcf;}.cls-16{fill:#9ab2cd;}.cls-17{stroke:#6693b9;stroke-width:1.2px;}.cls-18{fill:#b89467;}.cls-19{fill:#e6c89f;}.cls-20{opacity:0.28;mix-blend-mode:overlay;}.cls-21{fill:#fdc4a5;}.cls-22{fill:#fddcaf;}.cls-23{fill:#bad2c8;}.cls-24{fill:#f99c3c;}</style><clipPath id="clip-path"><path class="cls-1" d="M119,152.17l28.56-4.64C126.12,86.68,97,95.36,97,95.36c-.43.64-4.08,4.71-11.2,4.77-9.33.08-13.07-4.22-13.07-4.22l-1.42-.19h0c-19.06-3.28-57.86,47-57.86,47l32.66,6.07c-.73,6.13-1.36,11.83-2.4,18.57-3.57,23,3.34,28.91,6.49,28,0,0,37.31,9.81,48.31,8.35,4.24-.56,14.69-5.19,14.69-5.19s7.1-13.6,6.78-27C119.87,165.6,119.55,159,119,152.17Z"/></clipPath></defs><g class="cls-2"><g id="BACKGROUND"><rect class="cls-3" x="-211.87" y="-50.93" width="750" height="500"/></g><g id="OBJECTS"><g class="cls-4"><path class="cls-5" d="M166.57,78.32c0,1.17-.17,4.08-.47,8.73a80.1,80.1,0,0,1-3,16.1,100.69,100.69,0,0,1-7.95,19.4,67.3,67.3,0,0,1-15.1,19,79.15,79.15,0,0,1-24.66,14.37q-14.91,5.66-36.3,5.64a110.59,110.59,0,0,1-31.17-4.12,66,66,0,0,1-24-12.63A57.41,57.41,0,0,1,8.37,123Q2.78,109.7,2.78,91A97.62,97.62,0,0,1,7.69,60.27a75.68,75.68,0,0,1,15.1-26.78c6.81-7.86,15.65-14.06,26.52-18.71s23.73-7,38.62-7q38.64,0,58.63,18.27T166.57,78.32Z"/></g><g class="cls-6"><path d="M109.52,395.43c.26-.95.51-1.89.75-2.84-6.31-.35-12.62-1.36-18.9-2.28A615.59,615.59,0,0,0-15.12,384c-2.3.06-4.72.18-6.68,1.67s-3.16,4.84-1.94,7.23c.9,1.76,2.71,2.39,4.37,2.83a76.24,76.24,0,0,0,31.52,1.53c4.35-.7,8.69-1.79,13.08-1.79s8.87,1.12,13.3,1.81C62,400.92,86.26,392.17,109.52,395.43Z"/></g><path d="M90.44,87.1l24.45-.93s3.94-16.75-3-20.47S111.14,44.3,93.2,40l-1-.21c-14.81-3-25.56,13.91-16.8,26.23Z"/><path class="cls-7" d="M63.33,59.3c1.42-8.95,10.34-23.93,26.18-14.71,5,2.9,7.11,8.19,8.12,13.68C98.34,62.1,97,96.11,97,96.11c-1.34,15.08-23.52,18.91-24.3.54l.46-9.19C61.67,83.77,61.74,69.36,63.33,59.3Z"/><path class="cls-8" d="M73.14,87.46S79.63,89.63,91.86,82A40,40,0,0,1,72.74,96.15Z"/><path class="cls-9" d="M92.92,72.87a6.61,6.61,0,1,1-6.6-6.6A6.6,6.6,0,0,1,92.92,72.87Z"/><path class="cls-9" d="M62.82,63.27a39.33,39.33,0,0,0,.66,13.09,6.59,6.59,0,0,0-.66-13.09Z"/><path class="cls-7" d="M104.9,63.79A4.87,4.87,0,1,1,99,60.2,4.86,4.86,0,0,1,104.9,63.79Z"/><path d="M97.91,66.3a2.72,2.72,0,0,1,.57-1.39,2.82,2.82,0,0,1,1.26-1,2.07,2.07,0,0,1,1.67.12,2.09,2.09,0,0,1,1,1.15,7.57,7.57,0,0,0-1.28-.37,2.06,2.06,0,0,0-1,.11A11.3,11.3,0,0,0,97.91,66.3Z"/><path d="M74.75,57.94a21,21,0,0,1-1.37,4,33.85,33.85,0,0,1-1.93,3.74l-.26-.62a34.52,34.52,0,0,1,3.73,1.67,33.79,33.79,0,0,1-4-.83l-.47-.12.21-.5c.28-.64.56-1.28.87-1.91s.63-1.25,1-1.86A29.76,29.76,0,0,1,74.75,57.94Z"/><path d="M80.09,59.86a13.07,13.07,0,0,0,.12,2.52c.12.8.45,1.52.89,1.63s1.06-.23,1.63-.8a13.9,13.9,0,0,0,1.57-2l0,0a.42.42,0,0,1,.74.4,8.46,8.46,0,0,1-1.42,2.42,4.12,4.12,0,0,1-1.17,1,2.19,2.19,0,0,1-1.81.21A2.3,2.3,0,0,1,79.38,64a4.37,4.37,0,0,1-.33-1.49,8.32,8.32,0,0,1,.33-2.78.36.36,0,0,1,.45-.24.35.35,0,0,1,.26.35Z"/><path d="M66.58,58.34a21.09,21.09,0,0,0,0,2.39,4.54,4.54,0,0,0,.21,1.05c.11.32.26.47.33.46s.28,0,.53-.24a4.72,4.72,0,0,0,.74-.79,23.46,23.46,0,0,0,1.34-2v0a.41.41,0,0,1,.58-.13.41.41,0,0,1,.18.48,9.21,9.21,0,0,1-1.1,2.36,4.7,4.7,0,0,1-.9,1.08,2.62,2.62,0,0,1-.7.44A1.53,1.53,0,0,1,66,62.92a2.19,2.19,0,0,1-.36-.76,4.58,4.58,0,0,1-.15-1.4,9.15,9.15,0,0,1,.43-2.56.35.35,0,0,1,.45-.23.36.36,0,0,1,.25.35Z"/><path d="M71.23,72.26c.61.26,1.11.57,1.62.78a3.38,3.38,0,0,0,1.41.34A3,3,0,0,0,75.63,73a15.5,15.5,0,0,0,1.54-.9,3.11,3.11,0,0,1-.93,1.74,2.84,2.84,0,0,1-2,.84,3,3,0,0,1-2-.81A3.6,3.6,0,0,1,71.23,72.26Z"/><path d="M65.72,51.9s14.25-.72,22.69-8c0,0-3.93,24.43,9.16,16.72,0,0,6.83-18.47-14.4-21.52C83.17,39.11,68.92,40,65.72,51.9Z"/><path class="cls-10" d="M79.13,41.1a35.18,35.18,0,0,0,7.94.13L86.36,41s16-7.64,14.1-18.69c0,0-10.94,1.43-17.61,18.58,0,0-4.66-16.23-15.61-17.4a36.44,36.44,0,0,0,2.75,11C72.4,40,80.06,41,80.06,41A9.3,9.3,0,0,0,79.13,41.1Z"/><path class="cls-10" d="M65.72,51.9S74.3,39.54,84.34,41.58,95.83,61.36,95.83,61.36l1.74-.73s3.2-16.72-12.22-20.07C85.35,40.56,73.58,37.65,65.72,51.9Z"/><path class="cls-11" d="M120.83,103.91s22.08,30.94,28.25,49.87,2,38-13.49,38.71c-8.83.41-38.78-17.36-52.46-26.29a10.1,10.1,0,0,1-4.57-6.94c-1.62-9.25,8.49-16.15,16.72-11.62L117.67,160l-10.94-49.33Z"/><line class="cls-12" x1="117.11" y1="159.61" x2="131.63" y2="165.88"/><path class="cls-7" d="M59.08,102.75s-30.64,22.5-42.42,38.55-13.79,35.46.73,41c8.26,3.16,42.26-4.37,58.05-8.59a10,10,0,0,0,6.5-5.16c4.43-8.28-3-18-12.25-16.26L44.58,157l25.79-43.45Z"/><line class="cls-12" x1="45.22" y1="156.83" x2="29.46" y2="158.25"/><path class="cls-13" d="M119,152.17l28.56-4.64C126.12,86.68,97,95.36,97,95.36c-.43.64-4.08,4.71-11.2,4.77-9.33.08-13.07-4.22-13.07-4.22l-1.42-.19h0c-19.06-3.28-57.86,47-57.86,47l32.66,6.07c-.73,6.13-1.21,12-2.25,18.75-3.57,23,3.19,28.73,6.34,27.86,0,0,37.31,9.81,48.31,8.35,4.24-.56,14.69-5.19,14.69-5.19s7.1-13.6,6.78-27C119.87,165.6,119.55,159,119,152.17Z"/><g class="cls-14"><path class="cls-15" d="M65.87,106.64c-.26.35-4.38-2.31-9.2-5.94s-8.52-6.84-8.26-7.18,4.38,2.31,9.2,5.93S66.13,106.3,65.87,106.64Z"/><path class="cls-15" d="M66,117.19c-.15.18-1.66-.87-4.19-2.42s-6.08-3.57-10-5.83A71.76,71.76,0,0,1,42,102.47c-2.33-1.93-3.53-3.38-3.4-3.51s1.61,1,4.06,2.62,5.95,3.76,9.91,6a93.69,93.69,0,0,1,9.89,6.27C64.87,115.68,66.16,117,66,117.19Z"/><path class="cls-15" d="M65.48,129.84c-.14.2-2.31-1.2-6-3.19s-8.81-4.5-14.51-7.38c-2.85-1.45-5.53-2.92-7.91-4.35a62.45,62.45,0,0,1-6.09-4.2c-3.31-2.63-5-4.66-4.86-4.78s2.1,1.54,5.51,3.89c1.7,1.18,3.8,2.47,6.17,3.84s5.06,2.77,7.89,4.21c5.67,2.86,10.83,5.54,14.36,7.82S65.59,129.69,65.48,129.84Z"/><path class="cls-15" d="M72.21,142.39c-.07.2-3.38-.73-8.63-2.57s-12.4-4.61-20.14-8.08-14.58-7-19.44-9.68-7.75-4.55-7.65-4.73,3.19,1.31,8.16,3.75,11.86,5.77,19.57,9.23,14.77,6.39,19.9,8.48S72.28,142.18,72.21,142.39Z"/><path class="cls-15" d="M69.27,148.26c-.06.2-3.69-.59-9.51-2.09s-13.8-3.72-22.58-6.35-16.68-5.18-22.36-7.12-9.15-3.28-9.09-3.48,3.66.75,9.42,2.43l22.48,6.67,22.44,6.78C65.8,146.88,69.33,148.05,69.27,148.26Z"/><path class="cls-15" d="M127.48,93.18c.17.39-5.17,3.09-12,5.72s-12.64,4.22-12.78,3.81,5.38-2.64,12.22-5.27S127.31,92.78,127.48,93.18Z"/><path class="cls-15" d="M144.42,98.39c.07.2-2.07,1.22-5.62,2.62s-8.51,3.18-14.08,4.9-10.67,3-14.4,3.89-6.06,1.2-6.11,1c-.1-.44,9-3,20.05-6.39S144.26,98,144.42,98.39Z"/><path class="cls-15" d="M146.38,110.57c.11.42-8.88,3.13-20,6.41s-20.11,5.88-20.24,5.46,8.68-3.68,19.8-7S146.27,110.16,146.38,110.57Z"/><path class="cls-15" d="M156.06,121.63c.05.2-2.74,1.16-7.32,2.46s-11,2.92-18.07,4.45-13.59,2.69-18.3,3.4-7.64,1-7.68.77,2.84-.88,7.49-1.86L130.34,127l18.13-4C153.11,122,156,121.42,156.06,121.63Z"/><path class="cls-15" d="M174,130.81c.05.2-3.58,1.21-9.5,2.62s-14.12,3.24-23.22,5.08-17.37,3.37-23.37,4.37-9.73,1.49-9.77,1.28,3.62-1.09,9.56-2.37,14.18-3,23.27-4.81,17.32-3.49,23.3-4.63S174,130.59,174,130.81Z"/><path class="cls-15" d="M103.22,104c0,.19-2.1.84-5.65,1.34a97.68,97.68,0,0,1-13.95.82c-2.72,0-5.31-.07-7.67-.14a34.4,34.4,0,0,1-6.31-.67,13.68,13.68,0,0,1-4-1.51c-.88-.53-1.27-.94-1.22-1s2,1,5.47,1.45a44.56,44.56,0,0,0,6.14.31l7.64,0c5.42,0,10.3-.12,13.84-.36S103.18,103.76,103.22,104Z"/><path class="cls-15" d="M107.54,117.23c0,.2-2.52.77-6.71,1.26a111.44,111.44,0,0,1-16.45.61A112.62,112.62,0,0,1,68,117.32c-4.14-.79-6.64-1.54-6.6-1.74.1-.47,10.28,1.53,23,2S107.48,116.76,107.54,117.23Z"/></g><path class="cls-16" d="M99,95a17.1,17.1,0,0,1,3.59-.15s6.15,21.35,5.35,31.63c-.8.5-2-.88-2-.88l-1.87-4.48S102.59,103.08,99,95Z"/><path class="cls-16" d="M68.7,95.6a19.62,19.62,0,0,0-3.69.71s-6.14,20.76-5.34,31c.8.5,2-.87,2-.87L63.52,122S65.14,103.67,68.7,95.6Z"/><path class="cls-16" d="M116.55,173.17l-8.64-52.78c-24.92,4.63-48.13-.8-48.13-.8l-9.12,50.35C39.07,218.55,38,360.63,37.85,373.07c9.86.21,18.55,0,28.41.28,19-65.28,17.57-129.22,17.57-129.22l2.92-.14c2.46,36.73,1.17,108.84.78,127.57,9.49-.21,19-.85,28.45-1.28C134.69,233.39,116.55,173.17,116.55,173.17Z"/><path class="cls-17" d="M47,191.47s35.91,6.21,73.12,1.18"/><line class="cls-17" x1="87.17" y1="195.17" x2="86.75" y2="243.99"/><path class="cls-17" d="M79,194.73s-5.64,48.5,7.86,45.68"/><path class="cls-17" d="M60.77,193.84s-3.76,34.68-17,32.6"/><path class="cls-17" d="M107.79,194.43s-1.18,31.74,15.87,34.12"/><path class="cls-17" d="M47.53,186.9s38.41,4.86,72.12.94"/><line class="cls-17" x1="53.18" y1="187.68" x2="52.55" y2="192.23"/><line class="cls-17" x1="57.25" y1="188" x2="56.62" y2="192.54"/><line class="cls-17" x1="109.62" y1="189.25" x2="110.24" y2="193.8"/><line class="cls-17" x1="112.91" y1="189.25" x2="113.54" y2="193.8"/><path class="cls-9" d="M50.66,169.94l35.92-9.61,30.06,13L119,184s-28.69-.42-34.5-5.69-36.3,3.56-36.3,3.56Z"/><path class="cls-11" d="M117.67,160,95.28,147.64c-8.23-4.53-18.34,2.37-16.72,11.62a10.1,10.1,0,0,0,4.57,6.94c13.68,8.93,43.63,26.7,52.46,26.29,12.39-.58,17.53-12.84,16-27.4C151.36,165,117.67,160,117.67,160Z"/><line class="cls-12" x1="117.11" y1="159.61" x2="131.63" y2="165.88"/><path class="cls-18" d="M103.62,153.89l14-6.43s-7.54-3-33.79-3.48-34-2.14-32.39.43S97.64,155.62,103.62,153.89Z"/><path class="cls-19" d="M73.74,130.06c9.19-3.34,20,17.21,7.87,21.61S63.75,133.7,73.74,130.06Z"/><g class="cls-20"><path class="cls-15" d="M74.64,134.36c-.19,0-.34-.25-.34-.64a2.05,2.05,0,0,1,1.9-1.88c.38,0,.61.16.63.35,0,.39-.48.76-.94,1.24S75,134.39,74.64,134.36Z"/></g><path class="cls-21" d="M114.81,146.31c-1.65,8.86-23,7.8-20.83-3.86S116.59,136.68,114.81,146.31Z"/><g class="cls-20"><path class="cls-15" d="M111,146.64c-.2,0-.34-.65-.55-1.62a5.75,5.75,0,0,0-.53-1.52,3.93,3.93,0,0,0-1.27-1.35c-2.46-1.61-4.92-2.45-4.8-2.84s2.76-.15,5.61,1.7a4.54,4.54,0,0,1,1.63,1.94,5,5,0,0,1,.35,2C111.37,146,111.16,146.64,111,146.64Z"/></g><path class="cls-22" d="M90.86,127.44c10.84,0,14.26,25.47,0,25.47S79.07,127.44,90.86,127.44Z"/><g class="cls-20"><path class="cls-15" d="M86.83,140c-.19,0-.42-.63-.49-1.72a12.3,12.3,0,0,1,1.52-6.35,5.73,5.73,0,0,1,1.2-1.6,2.09,2.09,0,0,1,1.32-.59c.36,0,.52.13.52.22s-.62.28-1.12,1.05a15.81,15.81,0,0,0-1.52,3.51C87.3,137.37,87.23,139.92,86.83,140Z"/></g><path class="cls-23" d="M57.29,132.73c8.79-6.34,26.46,12.33,14.89,20.67S47.72,139.62,57.29,132.73Z"/><g class="cls-20"><path class="cls-15" d="M59.8,143.6c-.15.1-.64-.26-1.11-1.09a6.94,6.94,0,0,1,.43-7.09c.57-.77,1.09-1.07,1.23-.95.3.26-.91,2-1,4.52S60.13,143.37,59.8,143.6Z"/></g><path class="cls-18" d="M79.83,162.12a39.86,39.86,0,0,0,20.37-1c6.51-2.2,13.52-6.86,17.4-13.64-21.12,3.45-45.07.42-66.18-3.05C51.42,144.41,59.7,158.12,79.83,162.12Z"/><path class="cls-7" d="M72.4,153.9c-.59,0-27.82,3.08-27.82,3.08s-15.42-4-22.19-3.4a92.94,92.94,0,0,0-13.3,2c-4,11.8-2,22.8,8.3,26.74,8.26,3.16,41.51-9.28,57.3-13.5C74.72,168.78,73.35,159.94,72.4,153.9Z"/><line class="cls-12" x1="45.56" y1="156.37" x2="30.28" y2="158.55"/><path class="cls-7" d="M69.11,154.6s2.28,15,5,14.4c7.85-1.4,20.14,2.87,21.64,1,1.62-2-7.11-3.4-7.11-3.4,3-.43,13.91,2.71,13.68.58-.14-1.28-11.38-4.21-11.38-4.21a68.28,68.28,0,0,1,9.79,1c3.91.68,3.86-.68,3.86-.68C104.16,160.71,91.4,159,91.4,159a34.08,34.08,0,0,1,5.43,0c2.3.26,5.36-.67,5-1.57-1-2.41-17-2.19-17-2.19s-1.67.12,2.16-2.93,2-4.43,2-4.43a98.53,98.53,0,0,1-9.6,3.94C78.27,152.14,69.11,154.6,69.11,154.6Z"/><path class="cls-24" d="M37.75,370.38l-3.36,25.11,43.36,1.15s-1.16-6.93-14.33-9.93l3.73-16.85Z"/><path class="cls-12" d="M53.94,391.1a10.46,10.46,0,0,1,9.48-4.39"/><path class="cls-24" d="M87.42,370.91l-3.3,25,43.16.65s-1.15-6.93-14.33-9.94l3.38-17Z"/><path class="cls-12" d="M103.48,391A10.45,10.45,0,0,1,113,386.6"/></g></g></svg>